<svg xmlns="http://www.w3.org/2000/svg" viewBox="0 0 256 153" width="256" height="153">
  <path fill="#1F305F" d="M215.2 0c-12.3 6.8-20.5 15.9-25.2 27.8-1.9 4.8-3.6 9.8-5.3 14.7-4.8 13.9-13.5 23.7-27.8 28.8-4.5 1.6-9.4 2.6-14.2 3.6-13.2 2.8-26.3 5.4-39.5 8.3-13.1 2.9-26.1 5.8-39.2 8.8-1.4.3-2.8.6-4.3.9-8.9 1.9-16.7 6.1-23.5 12.6-8.1 7.8-12.3 17.5-13.1 28.6-.3 4.2-.6 8.5-.8 12.7-.2 3.7.6 4.5 4.2 5.3 12.1 2.6 24.1 5.2 36.2 7.7 12.6 2.7 25.3 5.5 37.9 8.2 12.2 2.6 24.4 5.3 36.6 7.9 2.9.6 3.8-.1 4.2-3.1 1.5-10.6 4.9-20.4 12.5-28.5 8-8.5 17.9-12.6 29.5-12.3 11.3.3 22.5 2.7 33.4 6.3 10.4 3.4 20.6 7.7 30.9 11.6 1.7.7 2.5.4 3.4-1.2 2.5-4.3 4.9-8.6 7.4-12.9 1.7-3 .6-4.8-2.6-6-11.2-4.1-22.5-8-33.8-12-9.4-3.3-18.9-6.4-28.2-10.1-8.1-3.1-15.6-7.3-21.4-14.1-5.6-6.5-8.6-14.2-9.1-22.8-.4-6.2.4-12.3 1.4-18.4 1.1-6.6 2.6-13.1 4.2-19.6 1.6-6.5 3.4-13 5.3-19.5 2.1-7.3 6.3-13.2 11.6-18.4 4.6-4.5 10-8.1 16-11.1z"></path>
</svg>
